<mxfile host="app.diagrams.net" modified="2024-05-06T01:13:34.531Z" agent="Mozilla/5.0 (Macintosh; Intel Mac OS X 10_15_7) AppleWebKit/537.36 (KHTML, like Gecko) Chrome/124.0.0.0 Safari/537.36" version="24.0.0" etag="Qxeh4iyM-6WWvWGfxA5r" type="github">
  <diagram name="Page-1" id="DZKCcAVPfC42uw_ONJmU">
    <mxGraphModel>
      <root>
        <mxCell id="0" />
        <mxCell id="1" parent="0" />
      </root>
    </mxGraphModel>
  </diagram>
</mxfile>
